<svg xmlns="http://www.w3.org/2000/svg" width="1680" height="1080" viewBox="0 0 1680 1080">
  <rect x="0" y="0" width="1680" height="1080" fill="#F5F4EF"/>

  <rect x="45" y="45" width="1590" height="990" fill="#F5F4EF" stroke="#0A0A0A" stroke-width="4"/>
  <rect x="45" y="45" width="1040" height="215" fill="#E6FF3D" stroke="#0A0A0A" stroke-width="4"/>
  <rect x="1085" y="45" width="550" height="215" fill="#0A0A0A" stroke="#0A0A0A" stroke-width="4"/>
  <text x="78" y="118" font-size="56" font-weight="900" fill="#0A0A0A">港話社媒文案器 ROADMAP</text>
  <text x="82" y="166" font-size="22" font-weight="700" fill="#0A0A0A">MVP → stable generation → HK language quality</text>
  <text x="82" y="194" font-size="22" font-weight="700" fill="#0A0A0A">→ team workflow → platform</text>
  <rect x="82" y="211" width="190" height="38" fill="#0A0A0A"/>
  <text x="111" y="237" font-size="18" font-weight="800" fill="#E6FF3D">LIVE PRODUCT</text>
  <rect x="292" y="211" width="210" height="38" fill="#F5F4EF" stroke="#0A0A0A" stroke-width="3"/>
  <text x="320" y="237" font-size="18" font-weight="800" fill="#0A0A0A">MODEL CASCADE</text>
  <rect x="522" y="211" width="185" height="38" fill="#F5F4EF" stroke="#0A0A0A" stroke-width="3"/>
  <text x="550" y="237" font-size="18" font-weight="800" fill="#0A0A0A">AUDIT PANEL</text>

  <text x="1125" y="105" font-size="27" font-weight="900" fill="#E6FF3D">NORTH STAR</text>
  <text x="1125" y="148" font-size="23" font-weight="800" fill="#F5F4EF">把普通中文/英文 brief</text>
  <text x="1125" y="184" font-size="23" font-weight="800" fill="#F5F4EF">稳定转成香港人觉得自然、可信、</text>
  <text x="1125" y="220" font-size="23" font-weight="800" fill="#F5F4EF">愿意互动的社媒内容。</text>

  <line x1="130" y1="330" x2="1550" y2="330" stroke="#0A0A0A" stroke-width="5"/>
  <rect x="145" y="307" width="46" height="46" fill="#0A0A0A"/>
  <rect x="470" y="307" width="46" height="46" fill="#0A0A0A"/>
  <rect x="795" y="307" width="46" height="46" fill="#0A0A0A"/>
  <rect x="1120" y="307" width="46" height="46" fill="#0A0A0A"/>
  <rect x="1445" y="307" width="46" height="46" fill="#0A0A0A"/>
  <text x="145" y="286" font-size="17" font-weight="900" fill="#8A8A85">NOW</text>
  <text x="468" y="286" font-size="17" font-weight="900" fill="#8A8A85">NEXT</text>
  <text x="786" y="286" font-size="17" font-weight="900" fill="#8A8A85">QUALITY</text>
  <text x="1116" y="286" font-size="17" font-weight="900" fill="#8A8A85">WORKFLOW</text>
  <text x="1444" y="286" font-size="17" font-weight="900" fill="#8A8A85">SCALE</text>

  <rect x="75" y="390" width="294" height="430" fill="#F5F4EF" stroke="#0A0A0A" stroke-width="4"/>
  <rect x="75" y="390" width="294" height="82" fill="#0A0A0A"/>
  <text x="105" y="443" font-size="31" font-weight="900" fill="#E6FF3D">V0.2 已上线</text>
  <text x="105" y="516" font-size="22" font-weight="900" fill="#0A0A0A">核心可用 MVP</text>
  <text x="105" y="562" font-size="18" font-weight="700" fill="#0A0A0A">• 三平台文案生成</text>
  <text x="105" y="600" font-size="18" font-weight="700" fill="#0A0A0A">• 港味温度计与风险提示</text>
  <text x="105" y="638" font-size="18" font-weight="700" fill="#0A0A0A">• CantoLLM 优先</text>
  <text x="105" y="676" font-size="18" font-weight="700" fill="#0A0A0A">• DeepSeek 后备/审核</text>
  <text x="105" y="714" font-size="18" font-weight="700" fill="#0A0A0A">• 规则兜底避免空白</text>
  <rect x="105" y="764" width="102" height="36" fill="#E6FF3D" stroke="#0A0A0A" stroke-width="3"/>
  <text x="132" y="789" font-size="18" font-weight="900" fill="#0A0A0A">LIVE</text>

  <rect x="400" y="390" width="294" height="430" fill="#E6FF3D" stroke="#0A0A0A" stroke-width="4"/>
  <rect x="400" y="390" width="294" height="82" fill="#0A0A0A"/>
  <text x="430" y="443" font-size="31" font-weight="900" fill="#E6FF3D">V0.3 稳定性</text>
  <text x="430" y="516" font-size="22" font-weight="900" fill="#0A0A0A">让生成稳定可预期</text>
  <text x="430" y="562" font-size="18" font-weight="700" fill="#0A0A0A">• 异步任务与轮询结果</text>
  <text x="430" y="600" font-size="18" font-weight="700" fill="#0A0A0A">• 模型超时状态可视化</text>
  <text x="430" y="638" font-size="18" font-weight="700" fill="#0A0A0A">• 重试 / 取消 / 继续生成</text>
  <text x="430" y="676" font-size="18" font-weight="700" fill="#0A0A0A">• 日志与错误原因展示</text>
  <text x="430" y="714" font-size="18" font-weight="700" fill="#0A0A0A">• API key 安全治理</text>
  <rect x="430" y="764" width="116" height="36" fill="#F5F4EF" stroke="#0A0A0A" stroke-width="3"/>
  <text x="459" y="789" font-size="18" font-weight="900" fill="#0A0A0A">NEXT</text>

  <rect x="725" y="390" width="294" height="430" fill="#F5F4EF" stroke="#0A0A0A" stroke-width="4"/>
  <rect x="725" y="390" width="294" height="82" fill="#0A0A0A"/>
  <text x="755" y="443" font-size="31" font-weight="900" fill="#E6FF3D">V0.4 港式语感</text>
  <text x="755" y="516" font-size="22" font-weight="900" fill="#0A0A0A">提升香港本地化质量</text>
  <text x="755" y="562" font-size="18" font-weight="700" fill="#0A0A0A">• 品牌词库与禁用词库</text>
  <text x="755" y="600" font-size="18" font-weight="700" fill="#0A0A0A">• Words.hk / 粤典参考层</text>
  <text x="755" y="638" font-size="18" font-weight="700" fill="#0A0A0A">• 港英夹杂控制器优化</text>
  <text x="755" y="676" font-size="18" font-weight="700" fill="#0A0A0A">• Shorts 粤语口播节奏</text>
  <text x="755" y="714" font-size="18" font-weight="700" fill="#0A0A0A">• HK reviewer 打分样本</text>
  <rect x="755" y="764" width="138" height="36" fill="#F5F4EF" stroke="#0A0A0A" stroke-width="3"/>
  <text x="779" y="789" font-size="18" font-weight="900" fill="#0A0A0A">QUALITY</text>

  <rect x="1050" y="390" width="294" height="430" fill="#F5F4EF" stroke="#0A0A0A" stroke-width="4"/>
  <rect x="1050" y="390" width="294" height="82" fill="#0A0A0A"/>
  <text x="1080" y="443" font-size="31" font-weight="900" fill="#E6FF3D">V0.5 团队流程</text>
  <text x="1080" y="516" font-size="22" font-weight="900" fill="#0A0A0A">进入真实社媒工作流</text>
  <text x="1080" y="562" font-size="18" font-weight="700" fill="#0A0A0A">• 内容日历批量生成</text>
  <text x="1080" y="600" font-size="18" font-weight="700" fill="#0A0A0A">• 飞书紫色修订模式</text>
  <text x="1080" y="638" font-size="18" font-weight="700" fill="#0A0A0A">• KOL brief 一键改写</text>
  <text x="1080" y="676" font-size="18" font-weight="700" fill="#0A0A0A">• 街坊留言模拟器增强</text>
  <text x="1080" y="714" font-size="18" font-weight="700" fill="#0A0A0A">• 审核意见导出</text>
  <rect x="1080" y="764" width="132" height="36" fill="#F5F4EF" stroke="#0A0A0A" stroke-width="3"/>
  <text x="1101" y="789" font-size="18" font-weight="900" fill="#0A0A0A">FLOW</text>

  <rect x="1375" y="390" width="235" height="430" fill="#0A0A0A" stroke="#0A0A0A" stroke-width="4"/>
  <rect x="1375" y="390" width="235" height="82" fill="#E6FF3D" stroke="#0A0A0A" stroke-width="4"/>
  <text x="1403" y="443" font-size="30" font-weight="900" fill="#0A0A0A">V1.0 规模化</text>
  <text x="1403" y="516" font-size="22" font-weight="900" fill="#E6FF3D">从工具到平台</text>
  <text x="1403" y="562" font-size="18" font-weight="700" fill="#F5F4EF">• 多品牌工作区</text>
  <text x="1403" y="600" font-size="18" font-weight="700" fill="#F5F4EF">• 版本历史与审批</text>
  <text x="1403" y="638" font-size="18" font-weight="700" fill="#F5F4EF">• API / 自动化接入</text>
  <text x="1403" y="676" font-size="18" font-weight="700" fill="#F5F4EF">• 质量评分报表</text>
  <text x="1403" y="714" font-size="18" font-weight="700" fill="#F5F4EF">• 付费团队版</text>
  <rect x="1403" y="764" width="96" height="36" fill="#E6FF3D"/>
  <text x="1427" y="789" font-size="18" font-weight="900" fill="#0A0A0A">SCALE</text>

  <rect x="75" y="880" width="475" height="115" fill="#0A0A0A"/>
  <text x="105" y="922" font-size="24" font-weight="900" fill="#E6FF3D">KEY METRICS</text>
  <text x="105" y="960" font-size="19" font-weight="800" fill="#F5F4EF">生成成功率 · 首次可用率 · 香港语感 4/5+</text>
  <text x="105" y="988" font-size="19" font-weight="800" fill="#F5F4EF">生成耗时 · 人工改动率 · 复制/导出率</text>

  <rect x="590" y="880" width="470" height="115" fill="#E6FF3D" stroke="#0A0A0A" stroke-width="4"/>
  <text x="620" y="922" font-size="24" font-weight="900" fill="#0A0A0A">CRITICAL DECISION</text>
  <text x="620" y="960" font-size="19" font-weight="800" fill="#0A0A0A">是否引入异步生成 / 自托管粤语模型，</text>
  <text x="620" y="988" font-size="19" font-weight="800" fill="#0A0A0A">决定能否稳定使用 CantoneseLLMChat。</text>

  <rect x="1100" y="880" width="510" height="115" fill="#F5F4EF" stroke="#0A0A0A" stroke-width="4"/>
  <text x="1130" y="922" font-size="24" font-weight="900" fill="#0A0A0A">OUTPUTS</text>
  <text x="1130" y="960" font-size="19" font-weight="800" fill="#0A0A0A">IG caption · Facebook post · Shorts hook</text>
  <text x="1130" y="988" font-size="19" font-weight="800" fill="#0A0A0A">审核标签 · 替换建议 · 文化复核风险</text>
</svg>
